<svg width="148" height="78" viewBox="0 0 141 31" fill="none" xmlns="http://www.w3.org/2000/svg">
<path d="M4.35875 2.48047H1.71263C1.52152 2.48047 1.36716 2.49517 1.24956 2.52457C0.933493 2.59072 0.690932 2.71568 0.514524 2.89944C0.176408 3.2155 0 3.56832 0 3.95789V16.7034C0 17.0929 0.161708 17.4458 0.485123 17.7618C0.808538 18.0485 1.1834 18.1881 1.60237 18.1881H4.35875V2.48047Z" fill="black"/>
<path d="M4.35875 2.48047H1.71263C1.52152 2.48047 1.36716 2.49517 1.24956 2.52457C0.933493 2.59072 0.690932 2.71568 0.514524 2.89944C0.176408 3.2155 0 3.56832 0 3.95789V16.7034C0 17.0929 0.161708 17.4458 0.485123 17.7618C0.808538 18.0485 1.1834 18.1881 1.60237 18.1881H4.35875V2.48047Z" fill="black"/>
<path d="M16.2332 13.6583L12.3375 10.358L14.7631 8.30727L21.621 2.50785H18.0634C18.0634 2.50785 15.5937 2.47844 13.6091 4.15432L6.27344 10.3507L13.6091 16.547C15.5937 18.2229 18.0634 18.1935 18.0634 18.1935H21.621L16.2332 13.6583Z" fill="black"/>
<path d="M45.2086 15.8425C45.1424 15.7469 43.8708 13.5051 41.3864 9.1316C40.9895 8.43332 40.6293 7.80854 40.3206 7.25727C39.2401 5.33148 38.6594 4.30978 38.5859 4.20687C38.5639 4.16277 38.5345 4.11867 38.5051 4.07457C38.3213 3.7291 38.1743 3.47184 38.0567 3.30278C37.6083 2.74416 37.0423 2.46484 36.3735 2.46484H33.0658C32.4631 2.46484 31.9412 2.70005 31.5075 3.16313C31.3752 3.33953 31.2429 3.53799 31.1253 3.7585C31.0812 3.82466 30.5887 4.68465 29.6552 6.33847C29.0525 7.40427 28.2587 8.79349 27.2811 10.5208C26.0462 12.6818 24.5982 15.2397 22.9297 18.1799C22.9297 18.1872 22.9297 18.1946 22.9297 18.1946C22.9297 18.2019 22.937 18.2019 22.9517 18.2019H26.399C27.1561 18.2019 27.7662 17.8932 28.2219 17.2831L29.251 15.4749C29.2583 15.4455 29.273 15.4161 29.2877 15.4014H29.2951L31.1988 12.0497H31.1915L34.727 5.82395L37.3217 10.4032C37.6083 10.9104 37.9244 11.4543 38.2625 12.0497H38.2551L40.791 16.5187C40.8645 16.6363 40.938 16.7686 41.0189 16.9083C41.4525 17.7756 42.1361 18.2093 43.0549 18.2093H46.539L45.2086 15.8425Z" fill="black"/>
<path d="M68.0504 7.40381C68.0062 7.27885 67.9621 7.1539 67.9254 7.02894C67.8666 6.84519 67.8078 6.68348 67.7563 6.54382C67.5652 6.1322 67.3447 5.72793 67.0801 5.33101C66.9478 5.12521 66.6905 4.82384 66.323 4.42692C65.9996 4.13291 65.7423 3.91975 65.5512 3.78009C64.3384 2.89805 63.008 2.45703 61.5526 2.45703H49.3878C49.1967 2.45703 48.9762 2.53053 48.7116 2.67019C48.2191 2.99361 47.9766 3.43463 47.9766 3.99325V6.53647H52.0413H53.2027H61.4865C61.8761 6.53647 62.2289 6.59527 62.5523 6.72023C62.736 6.79373 62.9198 6.89664 63.1036 7.02894C63.2432 7.1245 63.427 7.29356 63.6328 7.53612C64.015 8.02859 64.2061 8.55046 64.2061 9.10909V11.5641C64.2061 12.0566 64.0444 12.5343 63.721 12.9974C63.6842 13.0709 63.5519 13.2179 63.3241 13.4384C62.8169 13.9089 62.2436 14.1367 61.5968 14.1367H52.0413V8.80773H47.9766V17.0695H48.0427C48.0648 17.1577 48.0868 17.2312 48.1089 17.2753C48.153 17.4076 48.2706 17.584 48.4617 17.7825C48.7557 18.0618 49.0865 18.2015 49.454 18.2015H61.5306C62.6846 18.2015 63.7577 17.9295 64.7647 17.3856C65.0441 17.2239 65.3087 17.0548 65.5586 16.8784C65.7938 16.7093 66.0731 16.4741 66.3965 16.1654C66.7346 15.7906 66.9699 15.4965 67.1095 15.2834C67.9033 14.1441 68.2929 12.8504 68.2929 11.395V9.3149C68.2929 8.60192 68.2121 7.96244 68.0504 7.40381Z" fill="black"/>
<path d="M88.9949 6.32367V4.05976C88.9949 3.89806 88.9802 3.76575 88.9581 3.67755C88.8993 3.41293 88.7964 3.20712 88.6568 3.04542C88.3481 2.6779 87.9511 2.49414 87.466 2.49414H72.0523C71.9641 2.50149 71.898 2.51619 71.8465 2.53089C71.7657 2.53824 71.6407 2.58234 71.4717 2.65585C71.2438 2.7661 71.0527 2.94251 70.8836 3.18507C70.7293 3.45704 70.6484 3.7143 70.6484 3.96421V5.00061C70.6484 5.49308 70.6484 5.9341 70.6484 6.33102H88.9949V6.32367Z" fill="black"/>
<path d="M74.7366 14.439V12.0428L74.7513 12.0281H84.7184V8.6543H70.6719C70.6719 8.67635 70.6719 8.70575 70.6719 8.7278V16.6515C70.6719 16.894 70.716 17.1145 70.8042 17.3277C70.9953 17.6952 71.2746 17.9525 71.6568 18.0921C71.8406 18.1509 71.9802 18.1803 72.0831 18.1803H87.438C87.7688 18.1803 88.0481 18.1068 88.2686 17.9672C88.3347 17.9378 88.4524 17.8422 88.6067 17.6879C88.864 17.3865 88.9889 17.0631 88.9889 16.7176V14.4537C88.9889 14.4464 88.9816 14.439 88.9742 14.439H74.7366Z" fill="black"/>
<path d="M112.501 15.8425C112.435 15.7469 111.163 13.5051 108.679 9.1316C108.282 8.43332 107.922 7.80854 107.613 7.25727C106.518 5.33148 105.937 4.30978 105.871 4.20687C105.849 4.16277 105.82 4.11867 105.79 4.07457C105.606 3.7291 105.459 3.47184 105.342 3.30278C104.893 2.74416 104.328 2.46484 103.659 2.46484H100.351C99.7482 2.46484 99.2264 2.70005 98.7927 3.16313C98.6604 3.33953 98.5281 3.53799 98.4105 3.7585C98.3664 3.82466 97.8739 4.68465 96.9404 6.33847C96.3377 7.40427 95.5438 8.79349 94.5662 10.5208C93.3314 12.6818 91.8834 15.2397 90.2148 18.1799C90.2148 18.1872 90.2148 18.1946 90.2148 18.1946C90.2148 18.2019 90.2222 18.2019 90.2369 18.2019H93.6842C94.4413 18.2019 95.0514 17.8932 95.5071 17.2831L96.5361 15.4749C96.5435 15.4455 96.5582 15.4161 96.5729 15.4014H96.5802L98.484 12.0497H98.4766L102.012 5.82395L104.607 10.4032C104.893 10.9104 105.21 11.4543 105.548 12.0497H105.54L108.076 16.5187C108.15 16.6363 108.223 16.7686 108.304 16.9083C108.738 17.7756 109.421 18.2093 110.34 18.2093H113.824L112.501 15.8425Z" fill="black"/>
<path d="M27.1161 30.7675L26.6825 29.7311H24.2863L23.8526 30.7675H22.875L25.0286 25.8574H26.0062L28.1305 30.7675H27.1161ZM24.617 28.9225H26.3444L25.4917 26.8571L24.617 28.9225Z" fill="black"/>
<path d="M41.341 26.8054C41.1058 26.6951 40.8632 26.6363 40.6206 26.6363C40.3193 26.6363 40.0399 26.7098 39.7827 26.8568C39.5328 27.0038 39.3343 27.2023 39.1873 27.4595C39.0403 27.7168 38.9668 27.9961 38.9668 28.2975C38.9668 28.5988 39.0403 28.8782 39.1873 29.1354C39.3343 29.3927 39.5328 29.5911 39.7827 29.7381C40.0326 29.8852 40.3119 29.9587 40.6206 29.9587C40.8558 29.9587 41.0911 29.9072 41.3263 29.8043C41.5615 29.7014 41.7746 29.5617 41.951 29.378L42.5023 29.9954C42.2451 30.26 41.9437 30.4658 41.6056 30.6128C41.2675 30.7672 40.9146 30.8407 40.5692 30.8407C40.0988 30.8407 39.6651 30.7304 39.2682 30.5026C38.8786 30.2747 38.5699 29.9734 38.342 29.5838C38.1142 29.1942 38.0039 28.7679 38.0039 28.3048C38.0039 27.8344 38.1215 27.4081 38.3494 27.0259C38.5772 26.6437 38.8933 26.3423 39.2829 26.1218C39.6798 25.9013 40.1135 25.791 40.5986 25.791C40.9514 25.791 41.2895 25.8645 41.6276 26.0042C41.9657 26.1438 42.2524 26.3423 42.4876 26.5849L41.9437 27.2758C41.782 27.07 41.5762 26.9156 41.341 26.8054Z" fill="black"/>
<path d="M56.6747 30.7675L56.2411 29.7311H53.8449L53.4112 30.7675H52.4336L54.5872 25.8574H55.5648L57.6891 30.7675H56.6747ZM54.1756 28.9225H55.903L55.0503 26.8571L54.1756 28.9225Z" fill="black"/>
<path d="M71.4411 26.1661C71.8307 26.3719 72.1321 26.666 72.3526 27.0408C72.5731 27.4157 72.6833 27.8347 72.6833 28.3124C72.6833 28.7829 72.5731 29.2092 72.3526 29.5767C72.1321 29.9516 71.8234 30.2382 71.4264 30.4514C71.0369 30.6645 70.5885 30.7675 70.0887 30.7675H68.082V25.8574H70.1254C70.6179 25.8574 71.0589 25.9603 71.4411 26.1661ZM70.956 29.7311C71.1986 29.5914 71.3823 29.4003 71.522 29.1577C71.6543 28.9152 71.7278 28.6359 71.7278 28.3198C71.7278 28.0037 71.6543 27.7244 71.5146 27.4745C71.375 27.2246 71.1839 27.0335 70.934 26.8938C70.6914 26.7542 70.4121 26.688 70.1107 26.688H69.0229V29.9442H70.1475C70.4488 29.9369 70.7135 29.8707 70.956 29.7311Z" fill="black"/>
<path d="M83.3086 25.8574H86.9103V26.6807H84.2494V27.8935H86.6383V28.7167H84.2494V29.9516H86.9911V30.7748H83.3086V25.8574Z" fill="black"/>
<path d="M97.7461 25.8574H98.8192L100.444 29.0181L102.061 25.8574H103.134V30.7675H102.274V27.2466L100.745 30.2603H100.142L98.6061 27.2466V30.7675H97.7535V25.8574H97.7461Z" fill="black"/>
<path d="M118.092 25.8574L116.306 29.1651V30.7748H115.365V29.2018L113.535 25.8648H114.491L115.828 28.1728L117.144 25.8648H118.092V25.8574Z" fill="black"/>
<path d="M52.0374 5.40039H47.9727V11.0014H52.0374V5.40039Z" fill="black"/>
<path d="M74.7357 5.74609H70.6562V13.8241H74.7357V5.74609Z" fill="black"/>
<path d="M140.934 9.84999C140.824 9.48983 140.589 9.19581 140.295 8.99735L140.287 8.98265L125.748 0.735569C125.748 0.735569 125.748 0.735569 125.741 0.742919C125.719 0.735569 125.704 0.720868 125.682 0.713518C125.66 0.706167 125.645 0.691467 125.623 0.684116C125.601 0.676766 125.587 0.669416 125.565 0.662065C125.528 0.647365 125.491 0.632664 125.462 0.625313C125.447 0.617963 125.432 0.617963 125.41 0.610613C125.381 0.603262 125.344 0.595912 125.315 0.588562C125.3 0.588562 125.293 0.581211 125.285 0.581211C125.241 0.573861 125.197 0.566511 125.153 0.55916C125.138 0.55916 125.131 0.55916 125.116 0.55916C125.072 0.537109 125.028 0.537109 124.977 0.537109C124.734 0.537109 124.499 0.595912 124.293 0.691467L129.865 10.3057L129.872 10.3131L141 10.3057C141 10.2322 140.993 10.1661 140.986 10.0926C140.971 10.0191 140.964 9.93085 140.934 9.84999Z" fill="#B70F2F"/>
<path d="M124.293 0.699219C123.888 0.897678 123.58 1.2652 123.462 1.71357C123.462 1.72092 123.462 1.72092 123.462 1.72827C123.447 1.77972 123.44 1.83117 123.433 1.88997C123.433 1.89732 123.433 1.90467 123.433 1.91203C123.425 1.97083 123.418 2.02963 123.418 2.09578V18.5458C123.418 18.6047 123.425 18.6708 123.433 18.7296C123.433 18.7296 123.433 18.7296 123.433 18.737C123.499 19.2147 123.785 19.6263 124.182 19.8689L129.886 10.3282L124.293 0.699219Z" fill="#EF5463"/>
<path d="M140.986 10.5198C140.986 10.5125 140.993 10.4977 140.993 10.4904C141 10.4316 141 10.3728 141 10.314V10.3066L129.835 10.314L124.168 19.8474C124.234 19.8841 124.3 19.9209 124.366 19.9503C124.374 19.9503 124.381 19.9576 124.388 19.9576C124.418 19.965 124.44 19.9797 124.469 19.987C124.491 19.9944 124.506 20.0017 124.528 20.0091C124.558 20.0164 124.587 20.0238 124.616 20.0311C124.638 20.0385 124.653 20.0385 124.675 20.0458C124.712 20.0532 124.741 20.0605 124.778 20.0605C124.793 20.0605 124.807 20.0679 124.83 20.0679C124.881 20.0752 124.932 20.0752 124.984 20.0752C125.028 20.0752 125.079 20.0752 125.124 20.0679C125.138 20.0679 125.153 20.0679 125.168 20.0605C125.204 20.0532 125.234 20.0532 125.263 20.0458C125.278 20.0458 125.3 20.0385 125.315 20.0385C125.351 20.0311 125.381 20.0238 125.418 20.0091C125.44 20.0017 125.469 19.9944 125.491 19.987C125.506 19.9797 125.513 19.9797 125.528 19.9723C125.623 19.9356 125.712 19.8915 125.792 19.84L140.074 11.74C140.559 11.5341 140.912 11.0711 140.986 10.5198Z" fill="#E5203D"/>
</svg>
